<svg xmlns="http://www.w3.org/2000/svg" width="2491.013" height="295.871"><path fill="#825dab" d="M2448.224 231.257q2.332 6.413-.583 12.826-2.624 6.412-9.037 8.453l-18.656 6.413q-6.413 2.04-12.826-.583-6.121-2.915-8.453-9.328-17.49-47.22-30.316-78.702-2.624-6.412 0-12.242 2.915-6.121 9.328-8.453l17.198-6.413q6.413-2.332 12.826.583 6.705 2.624 9.328 9.036 15.158 35.562 31.19 78.41Zm-186.269-80.741q6.705 2.04 9.62 8.161 2.915 5.83.583 12.242-13.409 36.728-31.482 78.702-2.915 6.413-9.328 9.036-6.413 2.332-12.826-.291l-17.198-6.705q-6.413-2.331-9.037-8.744-2.332-6.413.292-12.534 14.866-34.687 29.733-74.33 2.332-6.412 8.453-9.618 6.413-3.207 13.118-1.166Z" font-family="'Rounded Mplus 1c'" font-size="277.843" font-weight="900" style="-inkscape-font-specification:&quot;Rounded Mplus 1c, Heavy&quot;"/><path fill="#825dab" d="M2442.394 106.501q0 6.704-4.956 11.66-4.955 4.955-11.66 4.955h-71.126q-2.623 0-2.623 2.623v111.057q0 13.116-.583 20.695-.292 7.579-2.624 14.283-2.04 6.704-4.955 9.62-2.915 2.914-9.62 4.954t-14.283 2.332q-7.288.583-20.405.583-8.745 0-30.024-1.457-6.996-.292-11.66-5.83-4.664-5.247-4.081-12.242l1.166-15.74q.291-6.705 5.247-11.077 5.247-4.373 11.95-3.79 6.414.583 14.284.583 6.413 0 7.58-1.457 1.165-1.457 1.165-8.745V125.739q0-2.623-2.623-2.623h-78.413q-6.705 0-11.66-4.956-4.956-4.955-4.956-11.66V90.178q0-6.705 4.956-11.66 4.955-4.955 11.66-4.955h78.413q2.623 0 2.623-2.624V52.284q0-6.704 4.956-11.66 4.955-4.954 11.66-4.954h23.611q6.705 0 11.66 4.955 4.956 4.955 4.956 11.66v18.654q0 2.624 2.623 2.624h71.126q6.705 0 11.66 4.955 4.956 4.955 4.956 11.66Zm-498.756-56.257h164.989q6.704 0 11.66 4.955 4.955 4.955 4.955 11.66v16.323q0 6.704-4.955 11.66-4.956 4.955-11.66 4.955h-164.989q-6.704 0-11.66-4.956-4.955-4.955-4.955-11.659V66.859q0-6.705 4.955-11.66 4.956-4.955 11.66-4.955m181.021 77.244q6.996 0 11.952 4.955 4.955 4.664 4.664 11.368-2.332 67.042-43.725 102.604-41.102 35.561-126.51 41.974-6.997.291-12.535-4.081-5.247-4.372-6.705-11.368l-2.915-16.906q-1.166-6.413 2.915-11.368 4.081-5.247 10.786-5.83 49.263-3.79 76.664-18.072 27.693-14.575 38.187-41.391.582-2.332-1.458-2.332h-152.746q-6.704 0-11.66-4.956-4.955-4.955-4.955-11.66v-16.322q0-6.704 4.955-11.66 4.956-4.955 11.66-4.955Z" font-family="'Rounded Mplus 1c'" font-size="277.843" font-weight="900" style="-inkscape-font-specification:&quot;Rounded Mplus 1c, Heavy&quot;"/><path fill="#4a0" d="M1868.411 295.049h-211.792v-30.031h211.792Z" aria-label="_" font-family="'Rounded Mplus 1c'" font-size="291.493" font-weight="900" style="-inkscape-font-specification:&quot;Rounded Mplus 1c, Heavy&quot;"/><path fill="#4a0" d="m1769.432 189.998-.329 1.043 1.203 1.67c3.072 4.25 7.629 10.532 11.406 18.78q3.006-3.864 6.99-7.943l-.02-.288a75.16 71.882 0 0 1 .095-11.59c.817-8.968 3.842-21.296 13.726-30.515 9.47-8.823 22.135-12.795 31.99-14.367a65.765 62.897 0 0 1 13.435-.89c1.832.09 3.692.27 5.355.63.818.179 1.86.466 2.922.925.817.36 2.913 1.33 4.482 3.522 1.371 1.905 1.878 4.133 2.066 4.996.301 1.348.526 2.884.677 4.528.282 3.298.282 7.44-.282 11.942-1.109 8.832-4.575 20.235-13.81 28.843-9.725 9.075-23.235 12.4-33.071 13.702a98.648 94.346 0 0 1-13.877.872c-8.737 8.976-11.913 15.562-13.219 21.124a37.58 35.941 0 0 0-.695 4.053l.01.925v17.97a9.395 8.985 0 1 1-18.79 0q-.01-2.695-.123-5.687c-.131-4.24-.282-8.868.113-13.604-.338-16.883-7.103-26.416-13.172-34.98a159.716 152.75 0 0 1-3.72-5.427l-1.56-.314a112.74 107.824 0 0 1-14.412-3.98c-10.86-3.774-25.141-10.64-33.7-22.94-8.512-12.22-9.77-26.623-9.02-37.379.376-5.48 1.307-10.333 2.293-14.017.498-1.824 1.034-3.477 1.588-4.834.263-.665.601-1.41 1.005-2.13.197-.359.489-.835.874-1.347a10.053 9.614 0 0 1 6.36-3.864 14 14 0 0 1 1.983-.18 19 19 0 0 1 2.677.162c1.597.189 3.505.548 5.543 1.033 4.097.97 9.367 2.597 14.995 4.906 10.992 4.511 24.784 12.247 33.165 24.27 8.68 12.48 9.019 26.92 7.675 37.262a88.314 84.462 0 0 1-2.837 13.118"/><path fill="#825dab" d="M2373.234 1.76s4.44-.9 11.101-.9c17.445 0 49.48 6.301 44.406 53.407-3.49.3-6.978.6-10.15.6-56.776 0-45.357-53.107-45.357-53.107m43.454 41.105s0-30.003-31.718-30.003c0 0 19.03 6 31.718 30.003M2490.078.9s-4.413-.9-11.033-.9c-17.338 0-49.177 6.3-44.133 53.406 3.467.3 6.935.6 10.087.6 56.428 0 45.08-53.106 45.08-53.106m-43.188 41.105s0-30.004 31.523-30.004c0 0-18.914 6-31.523 30.004"/><path fill="#825dab" d="M1492.602 128.707q6.74 0 11.723 4.982 4.982 4.69 4.69 11.43-1.173 60.959-14.948 91.145-13.774 30.186-49.53 51.58-6.155 3.517-13.188 1.759-6.741-1.465-10.844-7.327l-11.43-16.998q-3.81-5.568-2.345-12.016 1.465-6.447 7.034-9.964 22.274-14.068 30.48-34.29 8.206-20.221 9.085-63.889.293-6.74 5.276-11.43 4.982-4.982 11.723-4.982Z" font-family="'Rounded Mplus 1c'" font-size="277.843" font-weight="900" style="-inkscape-font-specification:&quot;Rounded Mplus 1c, Heavy&quot;"/><path fill="#825dab" d="M1614.23 61.301q6.74 0 11.723 4.982 4.982 4.982 4.982 11.723v14.947q0 19.05-5.862 32.237-18.464 40.444-56.564 71.217-5.568 4.396-12.895 3.81-7.034-.88-11.723-6.448l-13.482-15.826q-4.396-4.982-3.517-11.723.88-6.74 6.155-10.843 26.67-21.688 36.635-43.082.293-.879-.293-1.758-.293-.88-1.173-.88h-163.83q-6.742 0-11.724-4.982t-4.982-11.722V78.006q0-6.74 4.982-11.723 4.982-4.982 11.723-4.982Zm-277.3 53.045 6.448 8.207q4.396 5.568 3.81 12.602-.586 7.033-6.155 11.43-20.809 16.998-49.53 33.117-2.052 1.172-2.052 3.81v93.196q0 6.74-4.982 11.723-4.982 4.982-11.723 4.982h-17.585q-6.74 0-11.723-4.982-4.982-4.983-4.982-11.723v-70.044q0-2.051-2.345-1.465-30.48 11.43-60.667 16.998-6.741 1.172-12.31-2.93-5.568-4.104-6.74-10.845l-1.759-11.136q-1.172-6.74 2.931-12.016 4.103-5.568 10.844-7.034 40.152-7.62 77.959-24.91 38.1-17.292 67.994-41.324 5.275-4.103 11.723-3.517 6.741.586 10.844 5.862Zm-252.639 20.223q6.74 0 11.723 4.982 4.982 4.982 4.982 11.723v16.412q0 6.74-4.982 11.722-4.983 4.983-11.723 4.983h-71.511q-2.638 0-2.638 2.637-1.466 86.456-95.25 108.436-6.742 1.466-12.896-2.344-5.861-3.517-8.207-10.258l-6.154-18.17q-2.052-6.154 1.172-11.723 3.518-5.861 9.965-7.62 27.843-7.327 39.859-21.1 12.309-13.776 12.895-37.22 0-2.638-2.638-2.638h-89.096q-6.74 0-11.723-4.983-4.982-4.981-4.982-11.722v-16.412q0-6.741 4.982-11.723t11.723-4.982ZM894.962 55.44h154.16q6.74 0 11.722 4.982 4.983 4.982 4.983 11.723v16.412q0 6.74-4.983 11.722-4.982 4.983-11.723 4.983h-154.16q-6.74 0-11.722-4.983-4.983-4.982-4.983-11.722V72.145q0-6.741 4.983-11.723t11.723-4.982M495.651 191.717q6.74 1.759 10.258 7.913 3.517 5.862 1.465 12.31-13.482 46.597-29.6 63.889-15.827 16.998-40.739 16.998-27.55 0-42.203-15.24-14.361-15.533-19.636-52.46-2.052-15.532-4.69-20.808-2.637-5.275-6.74-5.275-10.258 0-23.154 18.17-12.602 18.171-33.41 66.234-2.931 6.448-9.38 9.086-6.154 2.93-12.602.586l-18.757-6.448q-6.447-2.051-9.378-8.499-2.638-6.154-.293-12.602 45.134-117.814 81.769-209.545 2.637-6.448 9.085-9.379 6.448-3.223 13.189-1.172l19.05 5.275q6.448 1.759 9.378 7.913 2.931 6.155.587 12.31-29.601 75.612-30.48 77.663v.586h.879q14.067-5.861 22.567-5.861 20.222 0 30.48 14.067t13.775 49.822q1.758 17.877 4.396 24.032 2.637 5.861 7.034 5.861 9.378 0 20.515-38.099 2.052-6.74 7.913-9.964 6.155-3.517 12.603-1.759Z" font-family="'Rounded Mplus 1c'" font-size="277.843" font-weight="900" style="-inkscape-font-specification:&quot;Rounded Mplus 1c, Heavy&quot;"/><path fill="#825dab" d="M1095.088 22a8.064 8.064 0 0 0-8.06 8.06v20.744a28.8 28.8 0 0 0 29.8 28.784 38 38 0 0 1-2.175-12.7c0-3.757.552-7.39 1.56-10.821l-7.458-7.459a3.453 3.453 0 1 1 4.882-4.882l5.415 5.407a38.121 38.12 0 0 1 18.584-17.154A28.73 28.728 0 0 0 1115.833 22Zm33.266 64.294-12.313 12.32a3.455 3.455 0 0 0 4.89 4.882l12.313-12.327a31.077 31.076 0 0 0 50.47-24.28V44.285c0-4.675-3.8-8.473-8.475-8.473h-22.603a31.077 31.076 0 0 0-24.282 50.482m26.747-16.996-16.946 16.948a24.2 24.2 0 0 1-4.883-4.889l16.948-16.94a3.453 3.453 0 1 1 4.882 4.882"/><path fill="#825dab" d="M25.773 67.52c-.996-4.24 1.098-7.784 2.632-10.301 1.91-2.822 5.943-6.044 10.183-6.497l22.824-4.085q6.36-.68 11.614 1.699c3.503 1.585 5.786 3.609 6.707 6.213.774 2.482.773 6.759-1.502 9.093-2.218 2.275-7.891 3.323-11.237 4.244-3.774 1.04-15.975 3.426-19.866 4.387-5.614 1.014-10.767 2.141-14.717 1.227-3.562-.825-5.927-3.888-6.638-5.98" aria-label="と" font-family="'Rounded Mplus 1c'" font-size="276.291" font-weight="900" style="-inkscape-font-specification:&quot;Rounded Mplus 1c, Heavy&quot;"/><path fill="#825dab" d="M99.762 67.546a8.43 8.43 0 0 0-4.11 1.226l-10.254 5.507-2.854-11.784c-.782 3.533-1.891 4.12-4.85 6.056-3.162 1.141-13.705 3.507-21.965 5.445-2.823.663-7.556 1.755-11.833 2.625l4.178 17.448c.94 4.125-5.131 5.76-6.162 1.658L37.88 77.06c-1.883-.026-3.4-.046-5.082-.163-1.48-.288-3.317.122-6.17-3.101 4.345 25.015 9.38 49.487 15.062 74.38q-.234 1.285-1.533 2.212Q0 179.779 0 217.611q.001 75.661 107.666 75.662 47.721 0 88.46-6.111 6.982-1.164 11.056-6.694 4.075-5.238 3.202-12.223l-1.747-16.877q-.873-6.693-6.401-10.767-5.238-4.075-11.93-2.911-42.485 6.11-82.64 6.11-26.189 0-37.829-6.984-11.64-7.274-11.64-22.114 0-16.587 34.628-36.085 34.627-19.497 102.427-35.795 6.402-1.455 10.185-7.274 3.783-6.112 2.328-12.805l-3.784-16.88q-1.455-6.691-7.275-10.183-5.528-3.783-11.93-2.328-50.63 11.932-87.295 26.773-2.327 1.164-2.91-1.457l-.133.04c-2.012-8.299-2.295-9.29-3.896-17.41l14.22-11.596c2.605-2.627 4.313-6.37 3.881-10.396a33 33 0 0 0-.661-3.989 30 30 0 0 0-.808-2.732c-.876-2.527-2.747-4.098-4.903-4.728a8 8 0 0 0-2.51-.311Zm-29.455 16.76a3.115 3.115 0 0 1 2.808 2.402l4.697 20.176c.99 2.965-3.595 7.058-5.278 1.2l-5.583-19.718c-.533-2.215 1.29-4.209 3.356-4.06m-16.94 27.392c.432-.031.884.029 1.332.2.958.366 1.786 6.656 2.028 7.67l1.843 6.657c.99 2.966-3.595 7.059-5.278 1.201l-2.843-11.669c-.495-2.057 1.04-3.921 2.918-4.059m693.875 43.393q56.406 53.485 64.881 61.376 4.969 4.676 5.261 11.69.292 6.723-4.091 11.983l-16.368 18.706q-4.384 4.969-11.398 5.553-6.722.585-11.69-4.091-33.318-30.688-84.464-80.081-19.873-19.29-26.01-23.966-5.846-4.676-10.23-4.676-4.968 0-9.937 4.384-4.676 4.384-17.535 21.92-23.381 31.857-36.533 48.516-4.091 5.26-11.106 5.845-6.722.292-11.69-4.384l-16.367-15.197q-4.968-4.969-5.553-11.691-.584-7.015 3.8-12.568 9.352-11.398 29.81-37.702 22.212-28.934 33.026-39.748 10.813-11.106 19.289-14.32 8.475-3.508 24.257-3.508 14.029 0 22.504 3.507 8.476 3.215 22.797 15.198 14.32 11.69 47.346 43.255Z" font-family="'Rounded Mplus 1c'" font-size="277.843" font-weight="900" style="-inkscape-font-specification:&quot;Rounded Mplus 1c, Heavy&quot;"/><path fill="#825dab" d="M770.745 61.004q-14.574 0-24.953 10.377-10.38 10.379-10.38 24.951 0 14.574 10.38 24.952 10.38 10.377 24.953 10.377 14.575 0 24.953-10.377 10.38-10.378 10.38-24.952 0-14.573-10.38-24.95-10.379-10.379-24.953-10.378m.43 22.508a12.49 12.49 0 0 1 12.49 12.49 12.49 12.49 0 0 1-12.49 12.488 12.49 12.49 0 0 1-12.488-12.489 12.49 12.49 0 0 1 12.488-12.489" font-family="'Rounded Mplus 1c'" font-size="274.736" font-weight="900" style="-inkscape-font-specification:&quot;Rounded Mplus 1c, Heavy&quot;"/></svg>